<?xml version="1.0" encoding="UTF-8"?>
<svg width="444px" height="300px" viewBox="0 0 444 300" version="1.1" xmlns="http://www.w3.org/2000/svg" xmlns:xlink="http://www.w3.org/1999/xlink">
    <defs>
        <linearGradient x1="50.0748148%" y1="100.108673%" x2="50.0748148%" y2="-0.00135473328%" id="linearGradient-1">
            <stop stop-color="#808080" stop-opacity="0.25" offset="0%"></stop>
            <stop stop-color="#808080" stop-opacity="0.12" offset="54%"></stop>
            <stop stop-color="#808080" stop-opacity="0.1" offset="100%"></stop>
        </linearGradient>
    </defs>
    <g id="Page-1" stroke="none" stroke-width="1" fill="none" fill-rule="evenodd">
        <g id="report_undraw_custom">
            <path d="M151,17 C151,17 145.120584,29.4236006 118,25.0777188" id="Shape" stroke="#535461" stroke-width="2"></path>
            <path d="M114,64 C114,64 135.264937,43.4606452 128.76433,36" id="Shape" stroke="#535461" stroke-width="2"></path>
            <ellipse id="Oval" fill="#3DCF8D" fill-rule="nonzero" opacity="0.1" cx="222" cy="281" rx="222" ry="19"></ellipse>
            <path d="M393.350124,133.504057 C392.408643,130.741418 391.048727,127.240252 389.975348,126.415108 C389.909888,126.362254 389.838072,126.317838 389.761582,126.282902 L389.629683,126.282902 L389.629683,122.868354 L387.091779,123.274088 C386.68844,122.040684 386.384254,120.776897 386.182136,119.494835 C386.6819,119.996565 387.433745,120.147644 388.087838,119.877775 C388.046904,119.809393 388.010519,119.736452 387.974133,119.663511 L388.087838,119.613364 C387.688136,118.907071 387.476674,118.109491 387.473829,117.297489 C387.494082,116.555819 387.611835,115.820065 387.824042,115.10926 C388.278863,113.536471 389.047512,112.068534 389.475044,110.486627 C389.747919,109.468818 389.876531,108.417581 389.857094,107.363842 C389.871144,105.577529 389.466071,103.812918 388.674558,102.212387 C388.474385,101.750168 388.161604,101.34574 387.764915,101.036215 C387.407736,100.837592 387.040334,100.658028 386.664247,100.498275 C386.033376,100.072463 385.489891,99.5292592 385.063275,98.8981328 C383.26042,96.6972552 380.846516,95.0821222 378.127246,94.2572646 C377.418371,93.9919196 376.649638,93.9303409 375.907717,94.079471 C374.202136,94.535352 373.583579,96.6551985 372.200921,97.767548 C370.981999,98.7476921 369.308256,98.8479859 367.775507,99.1762202 C366.242759,99.5044545 364.700913,100.156364 363.654824,101.341655 C362.934068,102.167772 362.540806,103.230267 362.549607,104.327675 C362.464244,105.37013 362.925959,106.38205 363.768529,106.999138 C364.724555,107.627229 365.910525,107.794421 367.002311,107.455019 C366.150158,110.404932 366.564397,113.577435 368.145225,116.20819 C369.726053,118.838944 372.33014,120.689424 375.330093,121.3138 L375.625727,121.847181 C376.539776,123.552864 377.233642,125.368164 377.690617,127.24937 C375.352834,128.575984 372.801285,129.820539 371.25944,129.939068 C371.197301,130.543137 371.084717,131.140917 370.922872,131.726121 C370.562292,133.193735 369.869791,134.558566 368.898916,135.71508 C366.802189,138.076543 357.373738,155.928841 357.373738,155.928841 C357.373738,155.928841 357.078104,156.640016 356.591445,157.852659 C350.737891,158.572951 341.18209,159.61236 338.516836,159.078979 L328.05594,149.104303 C328.05594,149.104303 324.672068,151.693707 324.967702,154.839286 L323.107481,153.043115 C323.107481,153.043115 313.155986,160.656327 328.870071,165.643665 L352.78004,168.424539 C350.505932,175.3129 348.377368,183.331846 349.036859,187.694627 L349.232432,187.694627 C349.689243,187.694274 350.145371,187.659223 350.596897,187.589774 L350.555963,188.364772 L348.240921,229.708617 C348.240921,229.708617 347.717876,237.321829 354.790352,240.731818 C354.790352,240.731818 363.431961,266.19277 360.029896,269.083056 C360.029896,269.083056 360.434687,269.29732 361.11692,269.593642 L354.008058,275.907594 C354.008058,275.907594 348.768514,277.220531 345.889494,276.95612 C344.842003,276.812045 343.853517,277.47911 343.592645,278.506115 C343.592645,278.560821 343.592645,278.615527 343.565355,278.670232 L343.565355,278.738615 C343.565355,278.79332 343.565355,278.848026 343.565355,278.90729 C343.565355,278.966555 343.565355,278.94832 343.565355,278.971114 C343.565355,278.993908 343.565355,279.066849 343.565355,279.116996 C343.565355,279.167143 343.565355,279.158025 343.565355,279.17626 C343.565355,279.194495 343.565355,279.29023 343.597193,279.344936 L343.597193,279.40876 C343.612354,279.469544 343.632063,279.530328 343.65632,279.591112 L343.679061,279.645818 C343.701802,279.705082 343.729091,279.764347 343.760929,279.823611 L343.760929,279.86464 C343.792766,279.923905 343.829152,279.978611 343.865538,280.037875 L343.897375,280.088022 C343.939825,280.148806 343.986823,280.20959 344.03837,280.270375 L344.079304,280.315963 C344.133882,280.379786 344.193009,280.439051 344.252136,280.498315 L344.279425,280.521109 L344.474998,280.689785 L344.515932,280.721697 C344.588704,280.780961 344.670572,280.835667 344.75244,280.890373 L344.807018,280.926843 C344.893434,280.981549 344.984399,281.036255 345.079911,281.086401 L345.120845,281.086401 L345.416479,281.232283 L345.457413,281.232283 L345.803077,281.369048 L345.875849,281.396401 L346.253351,281.519488 L346.317026,281.519488 L346.730913,281.6289 L346.762751,281.6289 L347.217573,281.720076 L347.308537,281.720076 L347.799744,281.793017 L347.895257,281.793017 L348.450139,281.847723 C349.528066,281.929781 350.978947,281.961693 352.657238,281.952575 C352.657238,281.952575 352.657238,281.993605 352.657238,282.016399 C352.657238,282.039193 352.657238,282.112134 352.657238,282.162281 L352.657238,282.221545 C352.657238,282.276251 352.657238,282.335515 352.689076,282.390221 L352.689076,282.454044 C352.704237,282.514828 352.723946,282.575613 352.748203,282.636397 L352.770944,282.691102 C352.793685,282.750367 352.820974,282.809632 352.852812,282.868896 L352.852812,282.909925 C352.884649,282.96919 352.921035,283.023896 352.957421,283.08316 L352.989258,283.133307 C353.031708,283.194091 353.078706,283.254875 353.130253,283.315659 L353.171187,283.361247 C353.225765,283.425071 353.284892,283.484335 353.344019,283.5436 L353.371308,283.566394 L353.566882,283.73507 L353.607815,283.766982 C353.680587,283.826246 353.762455,283.880952 353.844323,283.935658 L353.90345,283.972128 C353.989866,284.026834 354.08083,284.081539 354.176342,284.131686 L354.217276,284.131686 L354.51291,284.277568 L354.553844,284.277568 L354.899509,284.414333 L354.97228,284.441685 L355.349782,284.564773 L355.413457,284.564773 L355.827345,284.674185 L355.859182,284.674185 L356.314004,284.765361 L356.404968,284.765361 L356.896175,284.838302 L356.991688,284.838302 L357.54657,284.893008 C364.368894,285.417271 386.091172,283.844481 386.091172,283.844481 L386.091172,283.785217 L386.091172,283.707717 C386.304938,282.691102 387.351027,276.782885 383.639683,272.415546 C383.748841,272.301575 383.857998,272.178487 383.958058,272.050841 C383.958058,272.050841 381.079038,267.063503 382.648172,265.486155 C384.217307,263.908807 374.793404,236.610655 374.793404,236.610655 C374.793404,236.610655 369.817656,228.73759 372.696677,219.811441 C375.575697,210.885292 372.43288,201.175027 372.43288,201.175027 C372.43288,201.175027 379.300686,199.128122 379.44168,190.653295 C379.44168,190.398001 379.44168,190.13359 379.44168,189.86462 C379.592285,189.886201 379.744403,189.89535 379.896502,189.891973 C379.993406,189.898945 380.090684,189.898945 380.187588,189.891973 C380.187588,189.891973 378.877702,185.169047 380.451384,181.754498 C382.025067,178.33995 385.427132,181.490087 388.569949,167.581159 C390.844057,157.515307 392.845272,145.935931 393.777656,140.301242 C394.180822,138.033921 394.03419,135.702674 393.350124,133.504057 Z M333.582022,163.036026 L331.194209,160.756621 C331.985598,161.084855 332.863404,161.408531 333.845819,161.71853 L342.851286,162.767056 C338.830663,163.131761 335.096578,163.336907 333.582022,163.036026 Z" id="Shape" fill="url(#linearGradient-1)" fill-rule="nonzero"></path>
            <path d="M357.177406,162.12963 C357.177406,162.12963 338.431382,164.75 334.523851,163.981481 L324.08996,154 C324.08996,154 314.194563,161.597222 329.820085,166.569444 L359,170 L357.177406,162.12963 Z" id="Shape" fill="#FDC2CC" fill-rule="nonzero"></path>
            <path d="M357.177406,162.12963 C357.177406,162.12963 338.431382,164.75 334.523851,163.981481 L324.08996,154 C324.08996,154 314.194563,161.597222 329.820085,166.569444 L359,170 L357.177406,162.12963 Z" id="Shape" fill="#000000" fill-rule="nonzero" opacity="0.05"></path>
            <path d="M363.719303,266 L354.510582,273.977749 C354.510582,273.977749 349.25045,275.264923 346.352958,275.005669 C343.455467,274.746415 342.143922,279.38115 348.98535,279.89511 C355.826778,280.40907 377.662607,278.86719 377.662607,278.86719 C377.662607,278.86719 379.769451,270.634736 373.453571,266 L363.719303,266 Z" id="Shape" fill="#47465A" fill-rule="nonzero"></path>
            <path d="M363.719303,266 L354.510582,273.977749 C354.510582,273.977749 349.25045,275.264923 346.352958,275.005669 C343.455467,274.746415 342.143922,279.38115 348.98535,279.89511 C355.826778,280.40907 377.662607,278.86719 377.662607,278.86719 C377.662607,278.86719 379.769451,270.634736 373.453571,266 L363.719303,266 Z" id="Shape" fill="#000000" fill-rule="nonzero" opacity="0.05"></path>
            <path d="M377.993106,276 C377.977517,276.998863 377.866895,277.993656 377.662864,278.969785 C377.662864,278.969785 355.801822,280.612129 348.983037,280.064681 C345.694578,279.803069 344.294541,278.524075 344.043371,277.298373 C343.745689,278.703328 344.936418,280.563683 348.983037,280.888276 C355.825078,281.435724 377.662864,279.79338 377.662864,279.79338 C377.919061,278.547362 378.029943,277.273693 377.993106,276 Z" id="Shape" fill="#FFFFFF" fill-rule="nonzero" opacity="0.3"></path>
            <path d="M375,119.507395 C375,119.507395 380.501894,127.820508 378.5,133.451054 C376.498106,139.0816 389,127.550355 389,127.550355 C389,127.550355 385.000631,120.04296 386.998106,112 L375,119.507395 Z" id="Shape" fill="#FDC2CC" fill-rule="nonzero"></path>
            <path d="M373.719981,269 L364.511698,276.983434 C364.511698,276.983434 359.251816,278.270058 356.354462,278.010915 C353.457108,277.751771 352.140975,282.375434 358.986729,282.893721 C365.832482,283.412008 387.662623,281.86624 387.662623,281.86624 C387.662623,281.86624 389.769367,273.637302 383.453787,269.004546 L373.719981,269 Z" id="Shape" fill="#47465A" fill-rule="nonzero"></path>
            <path d="M375,267.57614 C373.670913,269.24794 371.796675,269.872569 369.836834,269.98739 C365.381013,270.203255 360.474654,267.57614 360.474654,267.57614 C363.786109,264.719382 355.379069,239.513775 355.379069,239.513775 C348.499354,236.138024 349.008462,228.601143 349.008462,228.601143 L351.261152,187.692554 L351.824324,177.41833 L358.960847,173 L364.588066,177.399958 L369.922437,181.574867 C370.269198,182.902339 370.492451,184.260175 370.589233,185.630361 C371.20647,195.178913 363.80413,197.424821 363.80413,197.424821 C363.80413,197.424821 366.863283,207.037673 364.060937,215.86974 C361.25859,224.701807 366.101874,232.495887 366.101874,232.495887 C366.101874,232.495887 375.279334,259.515673 373.76102,261.077245 C372.242707,262.638817 375,267.57614 375,267.57614 Z" id="Shape" fill="#565171" fill-rule="nonzero"></path>
            <path d="M375,267.57614 C373.670913,269.24794 371.796675,269.872569 369.836834,269.98739 C365.381013,270.203255 360.474654,267.57614 360.474654,267.57614 C363.786109,264.719382 355.379069,239.513775 355.379069,239.513775 C348.499354,236.138024 349.008462,228.601143 349.008462,228.601143 L351.261152,187.692554 L351.824324,177.41833 L358.960847,173 L364.588066,177.399958 L369.922437,181.574867 C370.269198,182.902339 370.492451,184.260175 370.589233,185.630361 C371.20647,195.178913 363.80413,197.424821 363.80413,197.424821 C363.80413,197.424821 366.863283,207.037673 364.060937,215.86974 C361.25859,224.701807 366.101874,232.495887 366.101874,232.495887 C366.101874,232.495887 375.279334,259.515673 373.76102,261.077245 C372.242707,262.638817 375,267.57614 375,267.57614 Z" id="Shape" fill="#000000" fill-rule="nonzero" opacity="0.05"></path>
            <path d="M384,270.574885 C379.677052,276.031394 369.512283,270.574885 369.512283,270.574885 C369.719373,270.382775 369.874199,270.139073 369.961654,269.86756 C371.826543,264.686633 363.670461,239.916473 363.670461,239.916473 C356.808568,236.540603 356.031156,228.484445 356.031156,228.484445 L354.233673,186.848714 L354,181.456508 L364.695027,177.281453 L367.979928,176 L378.913122,184.56139 C379.386446,186.331769 379.622276,188.159663 379.61414,189.994933 C379.479329,198.395568 372.82864,200.42109 372.82864,200.42109 C372.82864,200.42109 375.879868,210.034282 373.084781,218.86666 C370.289694,227.699039 375.120431,235.493395 375.120431,235.493395 C375.120431,235.493395 384.274116,262.514134 382.759736,264.075761 C381.245357,265.637388 384,270.574885 384,270.574885 Z" id="Shape" fill="#565171" fill-rule="nonzero"></path>
            <path d="M380,190 C377.740927,189.680623 373.167854,186.99329 370.816648,185.53328 C369.920511,184.976651 369.347722,184.620773 369.347722,184.620773 C369.347722,184.620773 366.996516,178.169351 360.723553,183.074074 C358.683679,184.708515 356.380552,185.993222 353.910137,186.874665 C352.965193,187.204789 351.990833,187.446151 351,187.595545 L351.577408,177.389157 L358.894324,173 L364.663787,177.370907 L368.04047,176.09796 L379.279142,184.593398 C379.766522,186.354971 380.008948,188.173857 380,190 Z" id="Shape" fill="#000000" fill-rule="nonzero" opacity="0.1"></path>
            <path d="M393.819734,141.285075 C392.915798,146.817393 390.954256,158.187354 388.735092,168.076258 C385.666228,181.747554 382.344262,178.64417 380.807571,181.998194 C379.270879,185.352219 380.549949,189.991345 380.549949,189.991345 C377.991809,190.2511 369.553563,184.577512 369.553563,184.577512 C369.553563,184.577512 367.253045,178.133775 361.115317,183.032656 C354.977589,187.931537 350.118931,187.671782 350.118931,187.671782 C348.839861,179.163679 358.299555,156.478442 358.299555,156.478442 C358.299555,156.478442 367.515186,138.947284 369.540004,136.62772 C370.487773,135.491381 371.163568,134.150432 371.515105,132.708615 C371.672015,132.133985 371.780868,131.547102 371.840522,130.954133 C375.162488,130.694378 383.347632,125.029904 383.347632,125.029904 L389.738462,124 L389.738462,127.349467 C389.812749,127.383131 389.882589,127.425994 389.946367,127.477066 C390.999453,128.28823 392.32372,131.728839 393.241215,134.440313 C393.98968,136.639152 394.188394,138.990247 393.819734,141.285075 Z" id="Shape" fill="#F5A623" fill-rule="nonzero"></path>
            <path d="M389.309331,129.791548 C389.309331,129.791548 382.564333,124.361744 372.449129,141.944622 C362.333925,159.5275 360,156.680052 360,156.680052 C360,156.680052 362.077148,164.449975 361.036281,165.990248 C361.036281,165.990248 368.038057,165.473777 370.633345,165.990248 C373.228633,166.506719 389.309331,146.336914 389.309331,146.336914 C389.309331,146.336914 397.613336,134.960832 389.309331,129.791548 Z" id="Shape" fill="#000000" fill-rule="nonzero" opacity="0.1"></path>
            <path d="M389.312439,128.785811 C389.312439,128.785811 382.565671,123.375878 372.447811,140.945583 C362.329951,158.515288 360,155.693708 360,155.693708 C360,155.693708 368.03558,164.487707 370.63155,164.990744 C373.227519,165.49378 389.312439,145.326576 389.312439,145.326576 C389.312439,145.326576 397.609451,133.962517 389.312439,128.785811 Z" id="Shape" fill="#000000" fill-rule="nonzero" opacity="0.1"></path>
            <path d="M361.175858,164.590588 C361.295525,162.618824 360.473465,159.150588 360,157.352941 C361.789802,157.141176 362.918835,157 362.918835,157 L365,165 L361.175858,164.590588 Z" id="Shape" fill="#000000" fill-rule="nonzero" opacity="0.1"></path>
            <path d="M387,113 L375,119.627387 C375.50519,120.327579 375.97139,121.052372 376.396685,121.798789 C377.0891,121.932511 377.793928,121.99992 378.500552,122 C381.704972,122 383.198895,118.809967 385.130387,116.663717 C385.00663,114.953423 386.465193,114.911504 387,113 Z" id="Shape" fill="#000000" fill-rule="nonzero" opacity="0.1"></path>
            <circle id="Oval" fill="#FDC2CC" fill-rule="nonzero" cx="378" cy="112" r="11"></circle>
            <path d="M364.100753,102.103043 C365.198611,100.996479 366.625038,100.260609 368.175024,100.001194 C369.685708,99.6816411 371.342883,99.5826247 372.551431,98.65097 C373.924781,97.5752915 374.529054,95.5319523 376.213697,95.0773768 C376.946565,94.9325712 377.705999,94.9918041 378.406478,95.2484052 C381.09835,96.0467379 383.488347,97.6132397 385.273226,99.7491523 C385.693896,100.361223 386.230024,100.888323 386.852578,101.30191 C387.224877,101.456896 387.588562,101.631169 387.942102,101.823997 C388.32997,102.124921 388.635242,102.51633 388.830201,102.962686 C390.04484,105.373409 390.32475,108.136574 389.617588,110.735476 C389.196428,112.270231 388.436508,113.692467 387.98788,115.236223 C387.539253,116.779979 387.424807,118.494764 388.248817,119.85849 C387.452274,120.259057 386.445151,119.754973 385.959901,119.025852 C385.474651,118.296731 385.309849,117.396582 385.044334,116.554942 C384.526352,114.899411 383.555607,113.415656 382.238123,112.26573 C381.423269,111.554612 379.949207,111.077533 379.39529,111.995685 C379.175554,112.351244 379.189287,112.801319 379.001596,113.17038 C378.630792,113.8905 377.559579,114.034524 376.850015,113.620455 C376.166111,113.156257 375.685486,112.455497 375.504133,111.658129 C374.437498,108.11154 372.620099,105.87917 368.760986,107.395922 C367.323547,107.963016 365.629749,108.345579 364.247244,107.373418 C362.425267,106.090705 362.796071,103.552284 364.100753,102.103043 Z" id="Shape" fill="#000000" fill-rule="nonzero" opacity="0.1"></path>
            <path d="M364.100753,102.103043 C365.198611,100.996479 366.625038,100.260609 368.175024,100.001194 C369.685708,99.6816411 371.342883,99.5826247 372.551431,98.65097 C373.924781,97.5752915 374.529054,95.5319523 376.213697,95.0773768 C376.946565,94.9325712 377.705999,94.9918041 378.406478,95.2484052 C381.09835,96.0467379 383.488347,97.6132397 385.273226,99.7491523 C385.693896,100.361223 386.230024,100.888323 386.852578,101.30191 C387.224877,101.456896 387.588562,101.631169 387.942102,101.823997 C388.32997,102.124921 388.635242,102.51633 388.830201,102.962686 C390.04484,105.373409 390.32475,108.136574 389.617588,110.735476 C389.196428,112.270231 388.436508,113.692467 387.98788,115.236223 C387.539253,116.779979 387.424807,118.494764 388.248817,119.85849 C387.452274,120.259057 386.445151,119.754973 385.959901,119.025852 C385.474651,118.296731 385.309849,117.396582 385.044334,116.554942 C384.526352,114.899411 383.555607,113.415656 382.238123,112.26573 C381.423269,111.554612 379.949207,111.077533 379.39529,111.995685 C379.175554,112.351244 379.189287,112.801319 379.001596,113.17038 C378.630792,113.8905 377.559579,114.034524 376.850015,113.620455 C376.166111,113.156257 375.685486,112.455497 375.504133,111.658129 C374.437498,108.11154 372.620099,105.87917 368.760986,107.395922 C367.323547,107.963016 365.629749,108.345579 364.247244,107.373418 C362.425267,106.095206 362.796071,103.561285 364.100753,102.103043 Z" id="Shape" fill="#B96B6B" fill-rule="nonzero"></path>
            <path d="M391,127.189953 L385.643295,127.189953 C385.643295,127.189953 375.102231,131.924647 374.841383,131.690215 C374.664379,131.531136 373.034077,131.803244 372,132 C372.161712,131.472127 372.273897,130.932998 372.335376,130.388278 C375.75901,130.14966 384.194656,124.946102 384.194656,124.946102 L390.781074,124 L390.781074,127.076923 C390.859019,127.106228 390.932568,127.144201 391,127.189953 Z" id="Shape" fill="#000000" fill-rule="nonzero" opacity="0.05"></path>
            <path d="M387.993106,278 C387.977517,278.998863 387.866895,279.993656 387.662864,280.969785 C387.662864,280.969785 365.801822,282.612129 358.983037,282.064681 C355.694578,281.803069 354.294541,280.524075 354.043371,279.298373 C353.745689,280.703328 354.936418,282.563683 358.983037,282.888276 C365.825078,283.435724 387.662864,281.79338 387.662864,281.79338 C387.919061,280.547362 388.029943,279.273693 387.993106,278 Z" id="Shape" fill="#FFFFFF" fill-rule="nonzero" opacity="0.3"></path>
            <g id="Group" opacity="0.05" transform="translate(350.000000, 126.000000)" fill="#F5A623" fill-rule="nonzero">
                <path d="M8.65561224,56.3890647 C5.15204082,59.1516547 2.05255102,60.3073381 0.0183673469,60.7677698 C0.0183673469,60.9611511 0.0551020408,61.1545324 0.0826530612,61.338705 C0.0826530612,61.338705 5.01887755,61.6011511 11.2545918,56.6515108 C12.2203341,55.8215691 13.3619902,55.2232082 14.5928571,54.9018705 C13.247449,54.2526619 11.2913265,54.2941007 8.65561224,56.3890647 Z" id="Shape"></path>
                <path d="M43.9071429,7.55107914 C42.9887755,4.78848921 41.6112245,1.3352518 40.5596939,0.515683453 C40.4948973,0.464082407 40.4239429,0.420775396 40.3484694,0.38676259 C40.3484694,0.38676259 38.1994898,0.460431655 38.2683673,0.515683453 C39.3382653,1.3352518 40.3760204,4.54906475 41.3081633,7.28863309 C42.0593603,9.50931843 42.2533422,11.8813808 41.8729592,14.1951079 C40.9545918,19.7847482 38.9617347,31.272518 36.7071429,41.2638849 C33.5892857,55.0768345 30.2142857,51.941295 28.6530612,55.3300719 C27.3765306,58.0926619 28.0147959,61.7484892 28.2903061,62.9778417 C29.4015306,63.4382734 30.3658163,63.7283453 30.9903061,63.6638849 C30.9903061,63.6638849 29.6908163,58.9766906 31.2520408,55.5879137 C32.8132653,52.1991367 36.1882653,55.3254676 39.3061224,41.5217266 C41.5607143,31.534964 43.5443878,20.0425899 44.4719388,14.4529496 C44.8515547,12.1407181 44.6575806,9.77033243 43.9071429,7.55107914 Z" id="Shape"></path>
            </g>
            <rect id="Rectangle-path" fill="#FAFBFC" fill-rule="nonzero" x="103" y="0" width="236" height="282"></rect>
            <rect id="Rectangle-path" fill="#7983A6" fill-rule="nonzero" x="103" y="0" width="236" height="9"></rect>
            <path d="" id="Shape" stroke="#7983A6"></path>
            <g id="Group" opacity="0.5" transform="translate(135.000000, 96.000000)" stroke="#7983A6">
                <path d="M0.0732275132,0.32 L2.81925926,0.32" id="Shape"></path>
                <path d="M8.21063492,0.32 L167.215026,0.32" id="Shape" stroke-dasharray="11.78"></path>
                <path d="M169.910714,0.32 L172.656746,0.32" id="Shape"></path>
            </g>
            <g id="Group" opacity="0.5" transform="translate(135.000000, 78.000000)" stroke="#7983A6">
                <path d="M0.0732275132,0.31 L2.81925926,0.31" id="Shape"></path>
                <path d="M8.21063492,0.31 L167.215026,0.31" id="Shape" stroke-dasharray="11.78"></path>
                <path d="M169.910714,0.31 L172.656746,0.31" id="Shape"></path>
            </g>
            <g id="Group" opacity="0.5" transform="translate(135.000000, 59.000000)" stroke="#7983A6">
                <path d="M0.0732275132,0.295 L2.81925926,0.295" id="Shape"></path>
                <path d="M8.21063492,0.295 L167.215026,0.295" id="Shape" stroke-dasharray="11.78"></path>
                <path d="M169.910714,0.295 L172.656746,0.295" id="Shape"></path>
            </g>
            <g id="Group" opacity="0.5" transform="translate(135.000000, 40.000000)" stroke="#7983A6">
                <path d="" id="Shape"></path>
                <path d="" id="Shape" stroke-dasharray="11.78"></path>
                <path d="" id="Shape"></path>
            </g>
            <g id="Group" opacity="0.3" transform="translate(144.000000, 78.000000)" fill="#E62C76" fill-rule="nonzero">
                <rect id="Rectangle-path" x="0.431785714" y="0.283855422" width="12.5635714" height="37.5650602"></rect>
            </g>
            <rect id="Rectangle-path" fill="#FFCD38" fill-rule="nonzero" x="178" y="59" width="12" height="56"></rect>
            <g id="Group" opacity="0.3" transform="translate(212.000000, 96.000000)" fill="#6C63FF" fill-rule="nonzero">
                <rect id="Rectangle-path" x="0.438666667" y="0.0930232558" width="12.628" height="19.6883721"></rect>
            </g>
            <rect id="Rectangle-path" fill="#4A4A4A" fill-rule="nonzero" x="247" y="39" width="12" height="76"></rect>
            <g id="Group" opacity="0.3" transform="translate(282.000000, 58.000000)" fill="#6C63FF" fill-rule="nonzero">
                <rect id="Rectangle-path" x="0.438666667" y="0.18547619" width="12.628" height="56.6652381"></rect>
            </g>
            <circle id="Oval" fill="#6C63FF" fill-rule="nonzero" cx="149.5" cy="124.5" r="3.5"></circle>
            <circle id="Oval" fill="#6C63FF" fill-rule="nonzero" cx="184.5" cy="124.5" r="3.5"></circle>
            <circle id="Oval" fill="#6C63FF" fill-rule="nonzero" cx="219.5" cy="124.5" r="3.5"></circle>
            <circle id="Oval" fill="#6C63FF" fill-rule="nonzero" cx="254.5" cy="124.5" r="3.5"></circle>
            <circle id="Oval" fill="#6C63FF" fill-rule="nonzero" cx="288.5" cy="124.5" r="3.5"></circle>
            <path d="" id="Shape" stroke="#7983A6"></path>
            <g id="Group" opacity="0.5" transform="translate(135.000000, 217.000000)" stroke="#7983A6">
                <path d="" id="Shape"></path>
                <path d="" id="Shape" stroke-dasharray="11.78"></path>
                <path d="" id="Shape"></path>
            </g>
            <g id="Group" opacity="0.5" transform="translate(135.000000, 198.000000)" stroke="#7983A6">
                <path d="M0.0732275132,0.115 L2.81925926,0.115" id="Shape"></path>
                <path d="M8.21063492,0.115 L167.215026,0.115" id="Shape" stroke-dasharray="11.78"></path>
                <path d="M169.910714,0.115 L172.656746,0.115" id="Shape"></path>
            </g>
            <g id="Group" opacity="0.5" transform="translate(135.000000, 179.000000)" stroke="#7983A6">
                <path d="M0.0732275132,0.1 L2.81925926,0.1" id="Shape"></path>
                <path d="M8.21063492,0.1 L167.215026,0.1" id="Shape" stroke-dasharray="11.78"></path>
                <path d="M169.910714,0.1 L172.656746,0.1" id="Shape"></path>
            </g>
            <g id="Group" opacity="0.5" transform="translate(135.000000, 160.000000)" stroke="#7983A6">
                <path d="M0.0732275132,0.09 L2.81925926,0.09" id="Shape"></path>
                <path d="M8.21063492,0.09 L167.215026,0.09" id="Shape" stroke-dasharray="11.78"></path>
                <path d="M169.910714,0.09 L172.656746,0.09" id="Shape"></path>
            </g>
            <rect id="Rectangle-path" fill="#6C63FF" fill-rule="nonzero" x="144" y="198" width="12" height="38"></rect>
            <rect id="Rectangle-path" fill="#2AC8C4" fill-rule="nonzero" x="178" y="198" width="12" height="38"></rect>
            <rect id="Rectangle-path" fill="#6C63FF" fill-rule="nonzero" x="213" y="217" width="12" height="20"></rect>
            <rect id="Rectangle-path" fill="#3DCF8D" fill-rule="nonzero" x="247" y="160" width="12" height="76"></rect>
            <rect id="Rectangle-path" fill="#3DCF8D" fill-rule="nonzero" x="329" y="115" width="12" height="57"></rect>
            <g id="Group" opacity="0.7" transform="translate(146.000000, 241.000000)" fill="#6C63FF" fill-rule="nonzero">
                <circle id="Oval" cx="3.48133333" cy="3.28533333" r="3.25733333"></circle>
            </g>
            <g id="Group" opacity="0.7" transform="translate(181.000000, 241.000000)" fill="#6C63FF" fill-rule="nonzero">
                <circle id="Oval" cx="3.45333333" cy="3.28533333" r="3.25733333"></circle>
            </g>
            <g id="Group" opacity="0.7" transform="translate(216.000000, 241.000000)" fill="#6C63FF" fill-rule="nonzero">
                <circle id="Oval" cx="3.42533333" cy="3.28533333" r="3.25733333"></circle>
            </g>
            <g id="Group" opacity="0.7" transform="translate(251.000000, 241.000000)" fill="#6C63FF" fill-rule="nonzero">
                <circle id="Oval" cx="3.39733333" cy="3.28533333" r="3.25733333"></circle>
            </g>
            <g id="Group" opacity="0.7" transform="translate(285.000000, 241.000000)" fill="#6C63FF" fill-rule="nonzero">
                <circle id="Oval" cx="3.36933333" cy="3.28533333" r="3.25733333"></circle>
            </g>
            <path d="M86.1730466,281.217838 C87.0190318,280.554847 87.6355453,279.660448 87.94093,278.653101 C88.1717242,277.632532 87.7193676,276.412285 86.7038732,276.039555 C85.5683658,275.622453 84.3543884,276.376787 83.4358275,277.144433 C82.5172666,277.912079 81.4602293,278.781782 80.2554836,278.617603 C81.515033,277.520038 82.082812,275.867455 81.7510299,274.264651 C81.6989539,273.938058 81.555339,273.631264 81.3356004,273.377199 C80.7032243,272.729359 79.563101,273.008907 78.8060961,273.519191 C76.4058366,275.143229 75.7365334,278.275934 75.7226858,281.098032 C75.4826598,280.081899 75.6857587,279.021394 75.6765269,277.99195 C75.6672952,276.962505 75.3718786,275.77332 74.4579336,275.231974 C73.8911914,274.939241 73.2547227,274.793929 72.6115801,274.810434 C71.5314633,274.770499 70.3313336,274.876993 69.5927922,275.635765 C68.6696154,276.576464 68.9142572,278.160566 69.7128051,279.185573 C70.511353,280.21058 71.7207146,280.871732 72.8377584,281.590568 C73.7330241,282.102217 74.4966776,282.801434 75.0718462,283.636145 C75.139495,283.751908 75.1951528,283.873778 75.238018,284 L82.0002877,284 C83.515404,283.257823 84.9190625,282.321942 86.1730466,281.217838 Z" id="Shape" fill="#3DCF8D" fill-rule="nonzero"></path>
            <path d="M411.173047,275.217838 C412.019032,274.554847 412.635545,273.660448 412.94093,272.653101 C413.171724,271.632532 412.719368,270.412285 411.703873,270.039555 C410.568366,269.622453 409.354388,270.376787 408.435827,271.144433 C407.517267,271.912079 406.460229,272.781782 405.255484,272.617603 C406.515033,271.520038 407.082812,269.867455 406.75103,268.264651 C406.698954,267.938058 406.555339,267.631264 406.3356,267.377199 C405.703224,266.729359 404.563101,267.008907 403.806096,267.519191 C401.405837,269.143229 400.736533,272.275934 400.722686,275.098032 C400.48266,274.081899 400.685759,273.021394 400.676527,271.99195 C400.667295,270.962505 400.371879,269.77332 399.457934,269.231974 C398.891191,268.939241 398.254723,268.793929 397.61158,268.810434 C396.531463,268.770499 395.331334,268.876993 394.592792,269.635765 C393.669615,270.576464 393.914257,272.160566 394.712805,273.185573 C395.511353,274.21058 396.720715,274.871732 397.837758,275.590568 C398.733024,276.102217 399.496678,276.801434 400.071846,277.636145 C400.139495,277.751908 400.195153,277.873778 400.238018,278 L407.000288,278 C408.515404,277.257823 409.919063,276.321942 411.173047,275.217838 Z" id="Shape" fill="#3DCF8D" fill-rule="nonzero"></path>
            <path d="M364,166 L360.633242,165.60534 L334.841387,162.582705 C319.186652,157.596053 329.088882,150 329.088882,150 L339.511555,159.982589 C342.519069,160.59083 354.309632,159.174695 359.592356,158.492165 C361.176713,158.283227 362.176147,158.143935 362.176147,158.143935 L364,166 Z" id="Shape" fill="#FDC2CC" fill-rule="nonzero"></path>
            <path d="M389.309331,129.791548 C389.309331,129.791548 382.564333,124.361744 372.449129,141.944622 C362.333925,159.5275 360,156.680052 360,156.680052 C360,156.680052 362.077148,164.449975 361.036281,165.990248 C361.036281,165.990248 368.038057,165.473777 370.633345,165.990248 C373.228633,166.506719 389.309331,146.336914 389.309331,146.336914 C389.309331,146.336914 397.613336,134.947121 389.309331,129.791548 Z" id="Shape" fill="#F5A623" fill-rule="nonzero"></path>
        </g>
    </g>
</svg>
